<svg width="26" height="26" viewBox="0 0 26 26" fill="none" xmlns="http://www.w3.org/2000/svg">
<path d="M9.00001 6C9.00001 4.85073 9.45655 3.74853 10.2692 2.93587C11.0819 2.12321 12.1841 1.66667 13.3333 1.66667C14.4826 1.66667 15.5848 2.12321 16.3975 2.93587C17.2101 3.74853 17.6667 4.85073 17.6667 6C17.6667 6.56 18.1067 7 18.6667 7C19.2267 7 19.6667 6.56 19.6667 6V5H21.6667V6C21.6667 6.79565 21.3506 7.55871 20.788 8.12132C20.2254 8.68393 19.4623 9 18.6667 9C17.871 9 17.108 8.68393 16.5454 8.12132C15.9827 7.55871 15.6667 6.79565 15.6667 6C15.6667 5.38116 15.4208 4.78767 14.9833 4.35009C14.5457 3.9125 13.9522 3.66667 13.3333 3.66667C12.7145 3.66667 12.121 3.9125 11.6834 4.35009C11.2458 4.78767 11 5.38116 11 6H12.6667V7.72C16.52 8.86667 19.3333 12.44 19.3333 16.6667C19.3333 19.142 18.35 21.516 16.5997 23.2663C14.8493 25.0167 12.4754 26 10 26C7.52465 26 5.15068 25.0167 3.40034 23.2663C1.65 21.516 0.666672 19.142 0.666672 16.6667C0.666672 12.44 3.48001 8.86667 7.33334 7.72V6H9.00001ZM23.3333 6H26V7.33333H23.3333V6ZM19.3333 3.33333V0.666668H20.6667V3.33333H19.3333ZM21.88 3.84L23.7733 1.94667L24.72 2.89333L22.8267 4.78667L21.88 3.84Z" fill="black"/>
</svg>
