<svg width="28" height="28" viewBox="0 0 28 28" fill="none" xmlns="http://www.w3.org/2000/svg">
<path d="M14 0.666668C12.249 0.666668 10.5152 1.01154 8.89755 1.68161C7.27988 2.35167 5.81002 3.3338 4.57191 4.57191C2.07142 7.0724 0.666664 10.4638 0.666664 14C0.666664 17.5362 2.07142 20.9276 4.57191 23.4281C5.81002 24.6662 7.27988 25.6483 8.89755 26.3184C10.5152 26.9885 12.249 27.3333 14 27.3333C17.5362 27.3333 20.9276 25.9286 23.4281 23.4281C25.9286 20.9276 27.3333 17.5362 27.3333 14C27.3333 12.4533 27.0533 10.92 26.52 9.48L24.3867 11.6133C24.5733 12.4 24.6667 13.2 24.6667 14C24.6667 16.829 23.5429 19.5421 21.5425 21.5425C19.5421 23.5429 16.829 24.6667 14 24.6667C11.171 24.6667 8.45791 23.5429 6.45753 21.5425C4.45714 19.5421 3.33333 16.829 3.33333 14C3.33333 11.171 4.45714 8.45792 6.45753 6.45753C8.45791 4.45714 11.171 3.33333 14 3.33333C14.8 3.33333 15.6 3.42667 16.3867 3.61333L18.5333 1.46667C17.08 0.946668 15.5467 0.666668 14 0.666668ZM23.3333 0.666668L18 6V8L14.6 11.4C14.4 11.3333 14.2 11.3333 14 11.3333C13.2928 11.3333 12.6145 11.6143 12.1144 12.1144C11.6143 12.6145 11.3333 13.2928 11.3333 14C11.3333 14.7072 11.6143 15.3855 12.1144 15.8856C12.6145 16.3857 13.2928 16.6667 14 16.6667C14.7072 16.6667 15.3855 16.3857 15.8856 15.8856C16.3857 15.3855 16.6667 14.7072 16.6667 14C16.6667 13.8 16.6667 13.6 16.6 13.4L20 10H22L27.3333 4.66667H23.3333V0.666668ZM14 6C11.8783 6 9.84343 6.84286 8.34314 8.34315C6.84285 9.84344 6 11.8783 6 14C6 16.1217 6.84285 18.1566 8.34314 19.6569C9.84343 21.1571 11.8783 22 14 22C16.1217 22 18.1566 21.1571 19.6569 19.6569C21.1571 18.1566 22 16.1217 22 14H19.3333C19.3333 15.4145 18.7714 16.771 17.7712 17.7712C16.771 18.7714 15.4145 19.3333 14 19.3333C12.5855 19.3333 11.229 18.7714 10.2288 17.7712C9.22857 16.771 8.66666 15.4145 8.66666 14C8.66666 12.5855 9.22857 11.229 10.2288 10.2288C11.229 9.22857 12.5855 8.66667 14 8.66667V6Z" fill="#EB002B"/>
</svg>
